<svg xmlns="http://www.w3.org/2000/svg" version="1.1" xmlns:xlink="http://www.w3.org/1999/xlink" xmlns:svgjs="http://svgjs.dev/svgjs" width="600" height="400" preserveAspectRatio="none" viewBox="0 0 600 400"><g mask="url(&quot;#SvgjsMask1123&quot;)" fill="none"><rect width="600" height="400" x="0" y="0" fill="rgba(36, 101, 203, 1)"></rect><path d="M 0,46 C 40,57.8 120,110.6 200,105 C 280,99.4 320,22.4 400,18 C 480,13.6 560,70 600,83L600 400L0 400z" fill="rgba(72, 165, 226, 1)"></path><path d="M 0,253 C 60,234.4 180,163.6 300,160 C 420,156.4 540,220 600,235L600 400L0 400z" fill="rgba(249, 202, 122, 1)"></path><path d="M 0,325 C 40,328.8 120,346 200,344 C 280,342 320,313 400,315 C 480,317 560,346.2 600,354L600 400L0 400z" fill="rgba(212, 158, 94, 1)"></path></g><defs><mask id="SvgjsMask1123"><rect width="600" height="400" fill="#ffffff"></rect></mask></defs></svg>