<?xml version="1.0" encoding="iso-8859-1"?>
<!-- Uploaded to: SVG Repo, www.svgrepo.com, Generator: SVG Repo Mixer Tools -->
<svg height="800px" width="800px" version="1.1" id="Layer_1" xmlns="http://www.w3.org/2000/svg" xmlns:xlink="http://www.w3.org/1999/xlink" 
	 viewBox="0 0 512.001 512.001" xml:space="preserve">
<g>
	<path style="fill:#7CD8A4;" d="M284.73,242.806c-4.543-24.747-1.022-52.404,11.812-81.424
		c25.669-58.04,78.526-90.916,118.061-73.432s50.775,78.709,25.106,136.75c-12.701,28.719-32.06,51.278-53.167,64.622"/>
	<path style="fill:#7CD8A4;" d="M224.621,369.238c-24.394,6.164-52.222,4.473-82.025-6.422
		c-59.605-21.789-95.893-72.365-81.052-112.966s75.193-55.851,134.799-34.062c29.493,10.781,53.279,28.611,67.985,48.793"/>
</g>
<path style="opacity:0.16;fill:#266659;enable-background:new    ;" d="M224.89,369.238l39.705-104.657
	c-2.597-3.564-5.491-7.049-8.636-10.44c-35.626,1.636-64.73,17.335-74.422,43.849c-8.786,24.035,0.349,51.566,21.63,74.552
	C210.664,372.096,217.921,370.999,224.89,369.238z"/>
<g>
	<path style="fill:#7CD8A4;" d="M261.637,512c-16.456-24.368-37.565-99.54-37.565-141.709c0-73.457,40.562-133.005,90.597-133.005
		s90.597,59.548,90.597,133.005c0,41.056-20.151,117.311-35.415,141.709H261.637z"/>
	<path style="fill:#7CD8A4;" d="M304.248,146.097c-4.011-5.471-7.608-11.586-10.626-18.245
		c-16.232-35.807-9.618-73.798,14.772-84.854c23.337-10.579,54.491,7.332,71.358,40.263"/>
</g>
<g style="opacity:0.22;">
	<path style="fill:#266659;" d="M414.898,87.95c-11.458-5.067-24.034-5.897-36.743-3.118l1.89-1.573
		c-16.866-32.931-48.021-50.842-71.358-40.263c-1.024,0.464-2.003,0.992-2.963,1.549c14.443,6.693,28.275,20.368,37.672,38.714
		l-1.89,1.573c12.709-2.778,25.286-1.949,36.743,3.118c39.534,17.484,50.775,78.709,25.106,136.75
		c-12.701,28.72-32.06,51.278-53.167,64.621h-0.001c11.741,22.427,18.725,50.499,18.725,80.971
		c0,41.056-20.151,117.311-35.415,141.709h36.649c15.265-24.398,35.415-100.653,35.415-141.709c0-30.471-6.985-58.544-18.725-80.971
		h0.001c21.108-13.344,40.466-35.902,53.167-64.621C465.673,166.66,454.432,105.435,414.898,87.95z"/>
</g>
<circle style="fill:#C70024;" cx="295.523" cy="26.012" r="26.012"/>
<g style="opacity:0.22;">
	<path style="fill:#266659;" d="M272.249,341.773c-4.376,0-7.923-3.546-7.923-7.923v-23.649c0-4.377,3.547-7.923,7.923-7.923
		c4.376,0,7.923,3.546,7.923,7.923v23.649C280.172,338.227,276.626,341.773,272.249,341.773z"/>
</g>
<g style="opacity:0.22;">
	<path style="fill:#266659;" d="M351.864,341.773c-4.376,0-7.923-3.546-7.923-7.923v-23.649c0-4.377,3.547-7.923,7.923-7.923
		c4.376,0,7.923,3.546,7.923,7.923v23.649C359.787,338.227,356.24,341.773,351.864,341.773z"/>
</g>
<g style="opacity:0.22;">
	<path style="fill:#266659;" d="M272.249,435.577c-4.376,0-7.923-3.546-7.923-7.923v-23.648c0-4.377,3.547-7.923,7.923-7.923
		c4.376,0,7.923,3.546,7.923,7.923v23.648C280.172,432.031,276.626,435.577,272.249,435.577z"/>
</g>
<g style="opacity:0.22;">
	<path style="fill:#266659;" d="M351.864,435.577c-4.376,0-7.923-3.546-7.923-7.923v-23.648c0-4.377,3.547-7.923,7.923-7.923
		c4.376,0,7.923,3.546,7.923,7.923v23.648C359.787,432.031,356.24,435.577,351.864,435.577z"/>
</g>
<g style="opacity:0.22;">
	<path style="fill:#266659;" d="M310.875,388.676c-4.376,0-7.923-3.546-7.923-7.923v-23.648c0-4.377,3.547-7.923,7.923-7.923
		c4.376,0,7.923,3.546,7.923,7.923v23.648C318.797,385.128,315.25,388.676,310.875,388.676z"/>
</g>
<g style="opacity:0.22;">
	<path style="fill:#266659;" d="M182.782,337.462c-4.376,0-7.923-3.546-7.923-7.923v-23.648c0-4.377,3.547-7.923,7.923-7.923
		s7.923,3.546,7.923,7.923v23.648C190.705,333.916,187.157,337.462,182.782,337.462z"/>
</g>
<g style="opacity:0.22;">
	<path style="fill:#266659;" d="M131.938,303.703c-4.376,0-7.923-3.546-7.923-7.923v-23.648c0-4.377,3.547-7.923,7.923-7.923
		c4.376,0,7.923,3.546,7.923,7.923v23.648C139.861,300.156,136.314,303.703,131.938,303.703z"/>
</g>
<g style="opacity:0.22;">
	<path style="fill:#266659;" d="M340.04,184.908c-4.376,0-7.923-3.546-7.923-7.923v-23.648c0-4.377,3.547-7.923,7.923-7.923
		c4.376,0,7.923,3.546,7.923,7.923v23.648C347.963,181.362,344.416,184.908,340.04,184.908z"/>
</g>
<g style="opacity:0.22;">
	<path style="fill:#266659;" d="M321.122,105.688c-4.376,0-7.923-3.546-7.923-7.923V74.117c0-4.377,3.547-7.923,7.923-7.923
		c4.376,0,7.923,3.546,7.923,7.923v23.648C329.045,102.141,325.498,105.688,321.122,105.688z"/>
</g>
<g style="opacity:0.22;">
	<path style="fill:#266659;" d="M414.926,184.908c-4.376,0-7.923-3.546-7.923-7.923v-23.648c0-4.377,3.547-7.923,7.923-7.923
		c4.376,0,7.923,3.546,7.923,7.923v23.648C422.849,181.362,419.302,184.908,414.926,184.908z"/>
</g>
<g style="opacity:0.22;">
	<path style="fill:#266659;" d="M375.512,232.204c-4.376,0-7.923-3.546-7.923-7.923v-23.648c0-4.377,3.547-7.923,7.923-7.923
		c4.376,0,7.923,3.546,7.923,7.923v23.648C383.435,228.657,379.888,232.204,375.512,232.204z"/>
</g>
<g style="opacity:0.22;">
	<path style="fill:#266659;" d="M310.875,487.209c-4.376,0-7.923-3.546-7.923-7.923v-23.649c0-4.377,3.547-7.923,7.923-7.923
		c4.376,0,7.923,3.546,7.923,7.923v23.649C318.797,483.663,315.25,487.209,310.875,487.209z"/>
</g>
</svg>